<?xml version="1.0" encoding="utf-8"?>
<!-- Generator: Adobe Illustrator 21.1.0, SVG Export Plug-In . SVG Version: 6.00 Build 0)  -->
<svg version="1.1" id="Layer_1" xmlns="http://www.w3.org/2000/svg" xmlns:xlink="http://www.w3.org/1999/xlink" x="0px" y="0px"
	 width="844px" height="81px" viewBox="0 0 844 81" enable-background="new 0 0 844 81" xml:space="preserve">
<linearGradient id="SVGID_1_" gradientUnits="userSpaceOnUse" x1="422" y1="81" x2="422" y2="-1.818989e-12">
	<stop  offset="0" style="stop-color:#CDE6FB"/>
	<stop  offset="0.1796" style="stop-color:#BCDEFA"/>
	<stop  offset="0.5339" style="stop-color:#91C7F7"/>
	<stop  offset="1" style="stop-color:#4FA6F2"/>
</linearGradient>
<rect y="0" fill-rule="evenodd" clip-rule="evenodd" fill="url(#SVGID_1_)" width="844" height="81"/>
<path opacity="0.2" fill-rule="evenodd" clip-rule="evenodd" fill="#FFFFFF" d="M155.3,79.3c-3.5-2.6-8.1-3.8-12.8-2.9
	c-1.8,0.4-3.4,1-4.8,1.8c-7.5-11.6-21.5-18-35.8-15.1c-2.7,0.6-5.3,1.4-7.7,2.6C89,64,83.4,63.5,77.8,64.7c-3.6,0.7-7,2.1-10,3.9
	c-1.7-7.6-8-13.1-15.4-14.1c-2.1-7.5-8.7-12.7-16.3-13c-0.1-0.7-0.2-1.5-0.3-2.2C33.2,26.3,20.6,18,7.6,20.6C0.8,22-4.7,26.1-8,31.7
	c-3.1-4-8.4-6.2-13.7-5.1c-3.4,0.7-6.2,2.6-8.2,5.1c-2.6-0.9-5.5-1.2-8.5-0.6C-45,32.4-49.9,37.7-51,44c-1.5-0.2-3-0.1-4.5,0.2
	c-6.8,1.4-11.5,7.1-12,13.7c-4.3-9.8-15-15.6-25.9-13.4c-12.6,2.6-20.8,14.9-18.2,27.5c0.9,4.3,2.9,8.1,5.7,11.1
	c-6.5-8.3-17.2-12.7-28.2-10.5c-9.5,1.9-16.9,8.4-20.4,16.7c-2.3-0.6-4.9-0.8-7.4-0.2c-1.1,0.2-2.1,0.5-3.1,0.9l336.7,6.5
	C173.1,92.6,163.2,83,155.3,79.3z"/>
<path opacity="0.2" fill-rule="evenodd" clip-rule="evenodd" fill="#FFFFFF" d="M339.9,92.4c-1-6.8-6.8-12-13.9-12
	c-3.5,0-6.7,1.3-9.1,3.4c-1.1-2-3.2-3.4-5.7-3.4c-0.8,0-1.5,0.1-2.2,0.4c-1.9-3.5-5.6-5.9-9.8-5.9c-1.1,0-2.2,0.2-3.2,0.5
	c0.3-1.3,0.5-2.7,0.5-4.2c0-10.7-8.7-19.4-19.4-19.4c-2.8,0-5.5,0.6-7.9,1.7c-1.2-3.1-4.2-5.4-7.8-5.4c-2.6,0-5,1.2-6.5,3.2
	c-4.6-4.2-10.8-6.8-17.5-6.8c-7.1,0-13.6,2.9-18.2,7.6c0.4-1.2,0.7-2.5,0.7-3.8c0-6.1-5-11.1-11.1-11.1c-0.7,0-1.3,0.1-2,0.2
	c-2.4-1.3-5.2-2-8.2-2c-0.9-6.4-5.9-11.6-12.2-11.9c-6.3-13.7-21.7-21.2-36.7-17.2c-13.1,3.5-22.1,14.9-23.2,27.7
	c-0.9,0-1.9,0.1-2.8,0.3c-2.8-6.3-9.7-9.8-16.5-8c-3.4,0.9-6.1,3-7.9,5.6c-1.6-1.7-4-2.4-6.4-1.8c-0.7,0.2-1.4,0.5-2,0.9
	c-2.7-2.9-6.9-4.3-11-3.2c-1.1,0.3-2.1,0.7-3,1.3c-0.1-1.4-0.3-2.8-0.6-4.2C73.5,14.6,62.9,8.5,52.5,11.3c-2.7,0.7-5.2,2-7.2,3.7
	c-2-2.7-5.5-4.1-8.9-3.2c-2.5,0.7-4.5,2.5-5.5,4.7c-5.6-2.9-12.2-3.8-18.7-2.1c-6.9,1.9-12.4,6.3-15.7,12c0.1-1.3,0-2.6-0.3-3.9
	c-1.6-5.9-7.7-9.4-13.6-7.8c-0.6,0.2-1.3,0.4-1.8,0.7c-2.7-0.6-5.6-0.6-8.4,0.2c-2.6-6.2-9.2-10-15.6-8.2c-3.8,1-6.7,3.8-8,7.2
	c-1.7-0.3-3.5-0.3-5.3,0.2c-6.4,1.7-10.2,8.3-8.5,14.7c1,3.7,3.6,6.5,6.9,7.9c-0.2,1.5-0.1,3,0.3,4.5c1.3,4.7,5.4,7.9,9.9,8.2
	c-4.8,2.6-7.5,8.2-6,13.7c0.7,2.5,2.1,4.6,3.9,6.1c-0.5,0.6-1,1.3-1.3,2c-0.7,0.1-1.5,0.2-2.2,0.4c-6.9,1.9-11,8.9-9.1,15.8
	c0.7,2.7,2.2,4.9,4.2,6.6c-0.4,0.4-0.7,0.9-1,1.4c-1.1-1-2.7-1.4-4.2-1c-2.5,0.7-3.9,3.2-3.3,5.7c0.6,2.3,2.9,3.7,5.2,3.4
	c0,1,0.1,1.9,0.3,2.9c-0.8,1.4-1.1,3.2-0.6,4.9c0.9,3.3,4.1,5.3,7.3,4.7c3.3,2.1,7.5,2.8,11.6,1.7c130.6,8.2,197.3,12.3,200.2,12.3
	C279.6,105.1,340.6,92.4,339.9,92.4z"/>
<path opacity="0.2" fill-rule="evenodd" clip-rule="evenodd" fill="#CDEBFA" d="M156.2,80.3c1.9,0.4,3.6,1.1,5.2,2.1
	c8.2-12.3,23.3-18.9,38.6-15.5c2.9,0.6,5.7,1.6,8.2,2.9c5.5-1.8,11.5-2.2,17.5-0.8c3.9,0.9,7.4,2.4,10.6,4.4
	c2-8.2,8.8-13.9,16.7-14.8c2.3-8,9.6-13.4,17.7-13.7c0.1-0.8,0.2-1.6,0.4-2.3c3.1-13.8,16.7-22.5,30.5-19.4
	c7.3,1.6,13.1,6.2,16.6,12.1c3.4-4.3,9.1-6.5,14.8-5.2c3.6,0.8,6.6,2.9,8.7,5.6c2.8-0.9,5.9-1.2,9.1-0.5c7.1,1.6,12.2,7.3,13.3,14
	c1.6-0.1,3.2,0,4.9,0.3c7.2,1.6,12.2,7.8,12.5,14.9c4.8-10.4,16.4-16.4,28-13.8c13.5,3,22,16.3,19,29.8c-1,4.6-3.3,8.6-6.3,11.8
	c7.1-8.7,18.7-13.3,30.4-10.7c10.1,2.2,17.9,9.3,21.5,18.2c2.5-0.6,5.2-0.7,7.9-0.1c1.1,0.3,2.2,0.6,3.3,1.1l-389,0.2
	C94.6,96.5,151.3,79.2,156.2,80.3z"/>
<path opacity="0.2" fill-rule="evenodd" clip-rule="evenodd" fill="#CDEBFA" d="M751.7,62.5c-1.9,0.4-3.6,1.1-5.2,2.1
	c-8.2-12.3-23.3-18.9-38.6-15.5c-2.9,0.6-5.7,1.6-8.2,2.9c-5.5-1.8-11.5-2.2-17.5-0.8c-3.9,0.9-7.4,2.4-10.6,4.4
	c-2-8.2-8.8-13.9-16.7-14.8c-2.3-8-9.6-13.4-17.7-13.7c-0.1-0.8-0.2-1.6-0.4-2.3c-3.1-13.8-16.7-22.5-30.5-19.4
	c-7.3,1.6-13.1,6.2-16.6,12.1c-3.4-4.3-9.1-6.5-14.8-5.2c-3.6,0.8-6.6,2.9-8.7,5.6c-2.8-0.9-5.9-1.2-9.1-0.5
	c-7.1,1.6-12.2,7.3-13.3,14c-1.6-0.1-3.2,0-4.9,0.3c-7.2,1.6-12.2,7.8-12.5,14.9c-4.8-10.4-16.4-16.4-28-13.8
	c-13.5,3-22,16.3-19,29.8c1,4.6,3.3,8.6,6.3,11.8c-7.1-8.7-18.7-13.3-30.4-10.7c-10.1,2.2-17.9,9.3-21.5,18.2
	c-2.5-0.6-5.2-0.7-7.9-0.1c-1.1,0.3-2.2,0.6-3.3,1.1l389,0.2C813.3,78.7,756.7,61.4,751.7,62.5z"/>
<path opacity="0.2" fill-rule="evenodd" clip-rule="evenodd" fill="#FFFFFF" d="M423.2,118.4c1-6.8,6.8-12,13.9-12
	c3.5,0,6.7,1.3,9.1,3.4c1.1-2,3.2-3.4,5.7-3.4c0.8,0,1.5,0.1,2.2,0.4c1.9-3.5,5.6-5.9,9.8-5.9c1.1,0,2.2,0.2,3.2,0.5
	c-0.3-1.3-0.5-2.7-0.5-4.2c0-10.7,8.7-19.4,19.4-19.4c2.8,0,5.5,0.6,7.9,1.7c1.2-3.1,4.2-5.4,7.8-5.4c2.6,0,5,1.2,6.5,3.2
	c4.6-4.2,10.8-6.8,17.5-6.8c7.1,0,13.6,2.9,18.2,7.6c-0.4-1.2-0.7-2.5-0.7-3.8c0-6.1,5-11.1,11.1-11.1c0.7,0,1.3,0.1,2,0.2
	c2.4-1.3,5.2-2,8.2-2c0.9-6.4,5.9-11.6,12.2-12c6.3-13.7,21.7-21.2,36.7-17.2c13.1,3.5,22.1,14.9,23.1,27.7c0.9,0,1.9,0.1,2.8,0.3
	c2.8-6.3,9.7-9.8,16.5-8c3.4,0.9,6.1,3,7.9,5.6c2.2-1.1,10.7-1.1,16.4,3.4c5.7,4.5,12.6,14.7,11.5,25.6c5.6-2.9-81.5,69.6-85.7,69.6
	C483.5,131.1,422.5,118.4,423.2,118.4z"/>
<rect y="80" fill-rule="evenodd" clip-rule="evenodd" fill="#A7B7C7" width="844" height="1"/>
<path opacity="0.2" fill-rule="evenodd" clip-rule="evenodd" fill="#FFFFFF" d="M999.3,79.3c-3.5-2.6-8.1-3.8-12.8-2.9
	c-1.8,0.4-3.4,1-4.8,1.8c-7.5-11.6-21.5-18-35.8-15.1c-2.7,0.6-5.3,1.4-7.7,2.6c-5.1-1.8-10.7-2.2-16.3-1.1c-3.6,0.7-7,2.1-10,3.9
	c-1.7-7.6-8-13.1-15.4-14.1c-2.1-7.5-8.7-12.7-16.3-13c-0.1-0.7-0.2-1.5-0.3-2.2c-2.6-12.9-15.2-21.3-28.1-18.6
	c-6.8,1.4-12.3,5.6-15.7,11.1c-3.1-4-8.4-6.2-13.7-5.1c-3.4,0.7-6.2,2.6-8.2,5.1c-2.6-0.9-5.5-1.2-8.5-0.6
	C799,32.4,794.1,37.7,793,44c-1.5-0.2-3-0.1-4.5,0.2c-6.8,1.4-11.5,7.1-12,13.7c-4.3-9.8-15-15.6-25.9-13.4
	c-12.6,2.6-20.8,14.9-18.2,27.5c0.9,4.3,2.9,8.1,5.7,11.1c-6.5-8.3-17.2-12.7-28.2-10.5c-9.5,1.9-16.9,8.4-20.4,16.7
	c-2.3-0.6-4.9-0.8-7.4-0.2c-1.1,0.2-2.1,0.5-3.1,0.9l336.7,6.5C1017.1,92.6,1007.2,83,999.3,79.3z"/>
<path opacity="0.2" fill-rule="evenodd" clip-rule="evenodd" fill="#FFFFFF" d="M1183.9,92.4c-1-6.8-6.8-12-13.9-12
	c-3.5,0-6.7,1.3-9.1,3.4c-1.1-2-3.2-3.4-5.7-3.4c-0.8,0-1.5,0.1-2.2,0.4c-1.9-3.5-5.6-5.9-9.8-5.9c-1.1,0-2.2,0.2-3.2,0.5
	c0.3-1.3,0.5-2.7,0.5-4.2c0-10.7-8.7-19.4-19.4-19.4c-2.8,0-5.5,0.6-7.9,1.7c-1.2-3.1-4.2-5.4-7.8-5.4c-2.6,0-5,1.2-6.5,3.2
	c-4.6-4.2-10.8-6.8-17.5-6.8c-7.1,0-13.6,2.9-18.2,7.6c0.4-1.2,0.7-2.5,0.7-3.8c0-6.1-5-11.1-11.1-11.1c-0.7,0-1.3,0.1-2,0.2
	c-2.4-1.3-5.2-2-8.2-2c-0.9-6.4-5.9-11.6-12.2-11.9c-6.3-13.7-21.7-21.2-36.7-17.2c-13.1,3.5-22.1,14.9-23.2,27.7
	c-0.9,0-1.9,0.1-2.8,0.3c-2.8-6.3-9.7-9.8-16.5-8c-3.4,0.9-6.1,3-7.9,5.6c-1.6-1.7-4-2.4-6.4-1.8c-0.7,0.2-1.4,0.5-2,0.9
	c-2.7-2.9-6.9-4.3-11-3.2c-1.1,0.3-2.1,0.7-3,1.3c-0.1-1.4-0.3-2.8-0.6-4.2c-2.8-10.3-13.4-16.5-23.8-13.7c-2.7,0.7-5.2,2-7.2,3.7
	c-2-2.7-5.5-4.1-8.9-3.2c-2.5,0.7-4.5,2.5-5.5,4.7c-5.6-2.9-12.2-3.8-18.7-2.1c-6.9,1.9-12.4,6.3-15.7,12c0.1-1.3,0-2.6-0.3-3.9
	c-1.6-5.9-7.7-9.4-13.6-7.8c-0.6,0.2-1.3,0.4-1.8,0.7c-2.7-0.6-5.6-0.6-8.4,0.2c-2.6-6.2-9.2-10-15.6-8.2c-3.8,1-6.7,3.8-8,7.2
	c-1.7-0.3-3.5-0.3-5.3,0.2c-6.4,1.7-10.2,8.3-8.5,14.7c1,3.7,3.6,6.5,6.9,7.9c-0.2,1.5-0.1,3,0.3,4.5c1.3,4.7,5.4,7.9,9.9,8.2
	c-4.8,2.6-7.5,8.2-6,13.7c0.7,2.5,2.1,4.6,3.9,6.1c-0.5,0.6-1,1.3-1.3,2c-0.7,0.1-1.5,0.2-2.2,0.4c-6.9,1.9-11,8.9-9.1,15.8
	c0.7,2.7,2.2,4.9,4.2,6.6c-0.4,0.4-0.7,0.9-1,1.4c-1.1-1-2.7-1.4-4.2-1c-2.5,0.7-3.9,3.2-3.3,5.7c0.6,2.3,2.9,3.7,5.2,3.4
	c0,1,0.1,1.9,0.3,2.9c-0.8,1.4-1.1,3.2-0.6,4.9c0.9,3.3,4.1,5.3,7.3,4.7c3.3,2.1,7.5,2.8,11.6,1.7c130.6,8.2,197.3,12.3,200.2,12.3
	C1123.6,105.1,1184.6,92.4,1183.9,92.4z"/>
</svg>